<svg xmlns="http://www.w3.org/2000/svg" width="436.81" height="404.87" viewBox="0 0 436.81 404.87"><defs><style>.cls-1,.cls-2{fill:#fff;}.cls-2{stroke:#fff;stroke-linecap:round;stroke-linejoin:round;stroke-width:0;}</style></defs><title>Asset 2</title><g id="Layer_2" data-name="Layer 2"><g id="Layer_1-2" data-name="Layer 1"><path class="cls-1" d="M436.79,371.36c-.61-22.07-.14-44.18-.13-66.27q0-65,0-129.92c0-6-.14-12-.21-18,0-43,.31-85.95-.12-128.92C436.2,12.34,421.81,0,404.7,0Q234.53,0,64.35.09c-19.22,0-32,13.05-32.24,32.41-.13,12,0,24,0,36v5.06a7.22,7.22,0,0,1-1.54.66c-6,0-12,.06-18,.1C3.87,74.36.14,78,.09,86.8q-.1,17.49,0,35c.05,9.82.25,19.63.38,29.44l.83,2.09-.08,0c1.59,4.32,5,5.92,9.28,5.95,7,0,13.91,0,20.87,0a31.47,31.47,0,0,1,.36,3.46q0,39.41,0,78.81a32.65,32.65,0,0,1-.5,3.77c-7,0-13.83-.06-20.6,0C4.2,245.32.32,248.94.14,255.38c-.22,8-.12,16-.08,23.94.06,14,.19,27.91.3,41.86.32,1,.64,2.05,1,3.07v0l0,0c1.76,4.5,5.56,5.82,9.85,5.91,6.74.15,13.49,0,20.23,0a43.62,43.62,0,0,1,.64,5.32c.06,12.3-.23,24.62.17,36.91C32.33,377,34,381.62,35,386.24l1.25,2.07-.06-.1,1.11,2.11.66.95c6.58,9.67,16.11,13.51,27.39,13.51q168.89.06,337.78.09C423.48,404.89,437.29,389.24,436.79,371.36Zm-79.28-45.95c-6.62,6.75-16.17,6.19-23.83-1.46q-19.11-19.05-38.15-38.16c-6.86-6.92-13.59-14-20.24-20.83-26.79,15.81-56.1,15.27-81.54.18-8.27,8.29-16.6,16.66-24.95,25-9.41,9.43-19.14,18.57-28.16,28.35-7,7.58-14.28,13.41-25.34,11.48.9.86,1.82,1.7,2.73,2.56-.91-.86-1.83-1.7-2.73-2.56-1.07-1.24-2-2.58-3.22-3.7-7.79-7.4-8-17.24-.27-24.95q27.54-27.61,55.18-55.12a29.45,29.45,0,0,1,4.37-3.06c-15.76-28-16.07-54.67.13-81.82-5-4.84-10.14-9.77-15.19-14.81q-22.5-22.4-44.91-44.88c-4.63-4.64-6.2-10.19-4.19-16.48a14.84,14.84,0,0,1,12.5-10.77c7.31-1.15,12.48,3.1,17.2,7.79q27.65,27.48,55.16,55.11c.59.59,1.22,1.12,2,1.84a72.94,72.94,0,0,1,40-11.66c14.32-.07,27.75,3.9,41.28,12.2,1.21-1.89,2-3.69,3.23-5q26.78-27,53.69-53.78c10-10,20.72-9.11,28.8,2.32,3,8,.42,14.43-5.43,20.22-18.23,18.05-36.3,36.25-54.46,54.36a47,47,0,0,1-4.06,3.29c16.52,27.95,14.88,56.68.28,81.18,1,1.09,2,2.32,3.17,3.46l55.72,55.91C363.81,309.26,364.31,318.49,357.51,325.41Zm47.39-85.54c-.72,9.51-7.57,15.65-16.84,15.32-8.56-.3-14.62-6.91-14.68-16.25-.08-12.47,0-24.95,0-37.43h.05c0-11.81,0-23.62,0-35.43.05-10.27,6.17-16.82,15.58-16.83S404.84,156,404.91,166c.13,21.45,0,42.91.06,64.37C405,233.56,405.15,236.73,404.9,239.87Z"/><path class="cls-2" d="M1.31,324.25v0"/><path class="cls-2" d="M1.31,324.25c-.31-1-.63-2-.95-3.07"/><path class="cls-2" d="M1.29,153.31l-.83-2.09"/><path class="cls-2" d="M35,386.24l1.25,2.07"/><path class="cls-2" d="M37.33,390.32l-1.11-2.11"/><path class="cls-1" d="M235,170.14a31.85,31.85,0,0,0-32.67,31.4,32.26,32.26,0,0,0,31.54,32.68c17.11.25,32.48-14.05,32.51-30.71C266.39,183.82,252.49,170.4,235,170.14Z"/></g></g></svg>