<svg xmlns="http://www.w3.org/2000/svg" width="436.81" height="404.87" viewBox="0 0 436.81 404.87"><defs><style>.cls-1{fill:#508ef4;}.cls-2{fill:#417ae4;}</style></defs><title>Asset 1</title><g id="Layer_2" data-name="Layer 2"><g id="Layer_1-2" data-name="Layer 1"><path class="cls-1" d="M38,391.27l-.66-.95-1.11-2.11.06.1L35,386.24c-1-4.62-2.7-9.22-2.86-13.87-.4-12.29-.11-24.61-.17-36.91a43.62,43.62,0,0,0-.64-5.32c.23-3.54-2.33-2.82-4.41-3-8.6-.6-17.57,2-25.67-2.94l0,0-1-3.09c-.11-13.95-.24-27.9-.3-41.86,0-8-.14-16,.08-23.94.18-6.44,4.06-10.06,10.48-10.13,6.77-.07,13.55,0,20.6,0a32.65,32.65,0,0,0,.5-3.77q0-39.4,0-78.81a31.47,31.47,0,0,0-.36-3.46c-1.61-.67-3.19-1.85-4.83-1.93-8.59-.44-17.53,1.56-25.32-4l.08,0-.83-2.09C.33,141.41.13,131.6.08,121.78q-.11-17.49,0-35C.14,78,3.87,74.36,12.54,74.3c6,0,12,0,18-.1a7.22,7.22,0,0,0,1.54-.66V68.48c0-12-.09-24,0-36C32.32,13.14,45.13.1,64.35.09Q234.53-.06,404.7,0c17.11,0,31.5,12.31,31.66,28.25.43,43,.13,85.94.12,128.92-1.5-1.3-3.08-2.52-4.48-3.91q-33.21-33.16-66.4-66.35a54.82,54.82,0,0,0-4.58-3.7c-8.08-11.43-18.82-12.3-28.8-2.32q-26.87,26.88-53.69,53.78c-1.27,1.28-2,3.08-3.23,5-13.53-8.3-27-12.27-41.28-12.2a72.94,72.94,0,0,0-40,11.66c-.78-.72-1.41-1.25-2-1.84q-27.57-27.55-55.16-55.11c-4.72-4.69-9.89-8.94-17.2-7.79a14.84,14.84,0,0,0-12.5,10.77c-2,6.29-.44,11.84,4.19,16.48q22.42,22.47,44.91,44.88c5,5,10.22,10,15.19,14.81-16.2,27.15-15.89,53.85-.13,81.82a29.45,29.45,0,0,0-4.37,3.06q-27.65,27.51-55.18,55.12c-7.69,7.71-7.52,17.55.27,24.95,1.18,1.12,2.15,2.46,3.22,3.7,2,1.91,4.09,3.78,6.06,5.75q31.1,31,62.17,62.15c1.12,1.12,2.15,2.34,3.76,4.11-1.73.09-2.66.18-3.58.18-40.29,0-80.59.07-120.88-.05-7.73,0-14.51-3-20.31-8.21A25.94,25.94,0,0,0,38,391.27Z"/><path class="cls-2" d="M38,391.27a25.94,25.94,0,0,1,4.53,2.64c5.8,5.2,12.58,8.19,20.31,8.21,40.29.12,80.59.06,120.88.05.92,0,1.85-.09,3.58-.18-1.61-1.77-2.64-3-3.76-4.11q-31.07-31.1-62.17-62.15c-2-2-4-3.84-6.06-5.75,11.06,1.93,18.35-3.9,25.34-11.48,9-9.78,18.75-18.92,28.16-28.35,8.35-8.35,16.68-16.72,24.95-25,25.44,15.09,54.75,15.63,81.54-.18,6.65,6.85,13.38,13.91,20.24,20.83q19,19.14,38.15,38.16c7.66,7.65,17.21,8.21,23.83,1.46,6.8-6.92,6.3-16.15-1.27-23.75l-55.72-55.91c-1.13-1.14-2.17-2.37-3.17-3.46,14.6-24.5,16.24-53.23-.28-81.18a47,47,0,0,0,4.06-3.29c18.16-18.11,36.23-36.31,54.46-54.36,5.85-5.79,8.41-12.19,5.43-20.22a54.82,54.82,0,0,1,4.58,3.7q33.22,33.15,66.4,66.35c1.4,1.39,3,2.61,4.48,3.91.07,6,.21,12,.21,18q0,65,0,129.92c0,22.09-.48,44.2.13,66.27.5,17.88-13.31,33.53-33.63,33.51q-168.89-.18-337.78-.09C54.1,404.78,44.57,400.94,38,391.27ZM373.41,201.51h-.05c0,12.48-.06,25,0,37.43.06,9.34,6.12,15.95,14.68,16.25,9.27.33,16.12-5.81,16.84-15.32.25-3.14.07-6.31.07-9.48,0-21.46.07-42.92-.06-64.37-.07-10.06-6.64-16.77-15.91-16.77s-15.53,6.56-15.58,16.83C373.37,177.89,373.41,189.7,373.41,201.51Z"/><path class="cls-2" d="M1.28,324.23c8.1,4.91,17.07,2.34,25.67,2.94,2.08.15,4.64-.57,4.41,3-6.74,0-13.49.15-20.23,0C6.84,330.05,3,328.73,1.28,324.23Z"/><path class="cls-2" d="M1.21,153.27c7.79,5.56,16.73,3.56,25.32,4,1.64.08,3.22,1.26,4.83,1.93-7,0-13.91.05-20.87,0C6.18,159.19,2.8,157.59,1.21,153.27Z"/><path class="cls-2" d="M.36,321.18l1,3.09Z"/><path class="cls-2" d="M.46,151.22l.83,2.09Z"/><path class="cls-2" d="M35,386.24l1.25,2.07Z"/><path class="cls-2" d="M36.22,388.21l1.11,2.11Z"/><path class="cls-2" d="M202.3,201.54A31.85,31.85,0,0,1,235,170.14c17.52.26,31.42,13.68,31.38,33.37,0,16.66-15.4,31-32.51,30.71A32.26,32.26,0,0,1,202.3,201.54Z"/></g></g></svg>
